<svg width="27" height="24" viewBox="0 0 27 24" fill="none" xmlns="http://www.w3.org/2000/svg">
<g clip-path="url(#clip0_3202_1433)">
<path d="M8.79132 23C10.005 23 10.9889 22.1046 10.9889 21C10.9889 19.8954 10.005 19 8.79132 19C7.57764 19 6.59375 19.8954 6.59375 21C6.59375 22.1046 7.57764 23 8.79132 23Z" stroke="white" stroke-width="1.59292" stroke-linecap="round" stroke-linejoin="round"/>
<path d="M21.9749 23C23.1886 23 24.1725 22.1046 24.1725 21C24.1725 19.8954 23.1886 19 21.9749 19C20.7612 19 19.7773 19.8954 19.7773 21C19.7773 22.1046 20.7612 23 21.9749 23Z" stroke="white" stroke-width="1.59292" stroke-linecap="round" stroke-linejoin="round"/>
<path d="M6.22899 6H25.271L23.425 14.39C23.3245 14.8504 23.0493 15.264 22.6476 15.5583C22.2458 15.8526 21.7431 16.009 21.2274 16H9.61326C9.0767 16.0041 8.55702 15.8295 8.15221 15.509C7.74739 15.1884 7.48542 14.7442 7.41568 14.26L5.74553 2.74C5.67626 2.25924 5.41745 1.81774 5.01725 1.49767C4.61705 1.17759 4.1027 1.00073 3.56993 1H1.09766" stroke="white" stroke-width="1.59292" stroke-linecap="round" stroke-linejoin="round"/>
</g>
<defs>
<clipPath id="clip0_3202_1433">
<rect width="26.3709" height="24" fill="white"/>
</clipPath>
</defs>
</svg>
