<svg width="218" height="59" viewBox="0 0 218 59" fill="none" xmlns="http://www.w3.org/2000/svg">
<g clip-path="url(#clip0_3201_43729)">
<path d="M38.7913 7.40508C45.2825 20.4841 51.826 33.5632 58.3696 46.7384C58.579 46.5461 58.736 46.4018 58.8931 46.2576C60.83 43.5648 62.2434 40.7278 63.1856 37.6023C64.0232 34.8615 64.442 32.0726 64.3373 29.2836C64.1803 22.8403 61.9816 16.9739 57.7414 11.8289C55.2287 8.75145 52.1401 6.25105 48.5804 4.27957C45.806 2.74086 42.8221 1.53874 39.5765 0.913638C39.053 0.817468 38.5295 0.721299 38.0061 0.625129C37.6396 0.52896 37.4302 0.673214 37.2732 0.961723C35.9121 3.41405 34.5511 5.86637 33.19 8.36678C30.8343 12.6463 28.4787 16.8778 26.1753 21.1573C24.3955 24.379 22.6156 27.6488 20.8358 30.8704C18.7419 34.6691 16.6479 38.5159 14.5016 42.3146C12.9835 45.1035 11.4654 47.8924 9.89499 50.6814C9.63325 51.1622 9.6856 51.4507 10.1567 51.7873C11.099 52.4605 12.0413 53.1818 12.9312 53.855C13.2453 54.0954 13.4023 54.0473 13.6117 53.7107C15.1298 50.9218 16.5956 48.1329 18.1137 45.344C20.2076 41.4491 22.3539 37.5061 24.4478 33.6113C26.5418 29.6683 28.6881 25.7735 30.782 21.8305C33.033 17.6952 35.284 13.5599 37.4826 9.37656C37.849 8.70337 38.1631 8.07827 38.5295 7.40508C38.6866 7.40508 38.7389 7.40508 38.7913 7.40508Z" fill="white"/>
<path d="M5.96722 46.8849C6.38601 46.1636 6.75245 45.4904 7.17124 44.7692C9.99805 39.576 12.8249 34.3829 15.6517 29.2378C18.112 24.7178 20.5201 20.1979 22.9804 15.6779C25.4408 11.1099 27.9535 6.54183 30.4139 1.9257C30.6757 1.49293 30.9374 1.01209 31.1468 0.579325C31.3562 0.146562 31.2515 -0.0457766 30.728 0.0503928C28.7911 0.290816 26.8019 0.43507 24.865 0.819748C19.7872 1.82953 15.3376 3.94525 11.3591 6.97459C7.38063 10.0039 4.39677 13.7545 2.35519 18.1302C1.15117 20.7268 0.365948 23.4196 -0.000490218 26.2085C-0.31458 29.0455 -0.31458 31.8344 0.208903 34.6714C0.889432 38.422 2.30284 41.8841 4.39677 45.1058C4.71086 45.6347 5.0773 46.1155 5.44374 46.5964C5.54844 46.7406 5.60079 46.8849 5.65313 47.0292C5.81018 46.9811 5.91488 46.933 5.96722 46.8849Z" fill="white"/>
<path d="M52.9253 50.3447C51.4072 47.3154 49.8891 44.2379 48.371 41.1605H26.9605C25.7042 43.4686 24.3954 45.7767 23.1914 48.1328C21.8304 50.6813 20.574 53.2779 19.2653 55.8745C18.8989 56.5957 19.0036 56.6919 19.7888 56.9323C21.4639 57.4132 23.0867 57.9902 24.8142 58.3268C27.9551 59 31.1484 59.1923 34.394 58.8557C35.8597 58.7115 37.3255 58.6153 38.7389 58.2787C40.8328 57.7498 42.9268 57.0766 44.9684 56.2591C47.8475 55.1051 50.3602 53.4221 52.6636 51.5468C53.03 51.1141 53.187 50.8736 52.9253 50.3447Z" fill="#C2C2C4"/>
<path d="M45.7522 35.8231C44.6005 33.4189 43.3965 31.0627 42.2448 28.6585C41.0408 26.2542 39.8892 23.8981 38.6852 21.4938C38.5805 21.2534 38.4234 21.013 38.214 20.6764C37.6905 21.59 37.2717 22.3594 36.853 23.1287C36.4342 23.8981 36.0154 24.7155 35.5442 25.4849C33.6597 28.947 31.7752 32.4091 29.8906 35.8231H45.7522Z" fill="#CA0100"/>
<path d="M87.6328 15.0514C88.6798 15.0514 89.3079 15.3399 89.9361 16.4459L96.5844 27.5534C96.7414 27.7939 96.6891 27.9862 96.3226 27.9862H93.7576C93.4958 27.9862 93.3911 27.9381 93.2864 27.7458L91.873 25.3415H82.398L80.9845 27.7458C80.8798 27.9381 80.7752 27.9862 80.5134 27.9862H77.896C77.5296 27.9862 77.4772 27.7939 77.6343 27.5534L84.2301 16.4459C84.9107 15.3399 85.4865 15.0514 86.3241 15.0514H87.6328ZM83.7067 23.2258H90.6166L87.4234 17.7922C87.371 17.6961 87.3187 17.648 87.214 17.648H87.1093C87.0046 17.648 86.9523 17.6961 86.8999 17.7922L83.7067 23.2258Z" fill="white"/>
<path d="M110.507 15.0505C113.282 15.0505 114.329 16.0603 114.329 18.0799V18.9454C114.329 20.0033 113.91 20.7726 113.02 21.3015C113.962 21.7824 114.433 22.5998 114.433 23.7058V24.7636C114.433 26.7351 113.544 27.9853 110.874 27.9853H98.886C98.4672 27.9853 98.2578 27.793 98.2578 27.4083V15.5795C98.2578 15.1948 98.4672 15.0024 98.886 15.0024H110.507V15.0505ZM101.399 20.436H109.67C110.978 20.436 111.397 20.0513 111.397 19.3301V18.705C111.397 17.9356 110.978 17.599 109.931 17.599H101.713C101.556 17.599 101.451 17.6952 101.451 17.8394L101.399 20.436ZM101.399 22.4556V25.1964C101.399 25.3407 101.503 25.4368 101.66 25.4368H109.931C110.978 25.4368 111.397 25.1002 111.397 24.3309V23.6096C111.397 22.8403 110.978 22.4556 109.67 22.4556H101.399Z" fill="white"/>
<path d="M131.343 15.0505C131.657 15.0505 131.761 15.1948 131.761 15.4352V17.2624C131.761 17.5509 131.604 17.6952 131.343 17.6952H122.391C120.297 17.6952 119.721 18.2722 119.721 20.1956V22.8403C119.721 24.8117 120.35 25.3888 122.391 25.3888H131.343C131.657 25.3888 131.761 25.533 131.761 25.7734V27.6007C131.761 27.8892 131.604 27.9853 131.343 27.9853H122.286C118.203 27.9853 116.633 26.639 116.633 23.0807V19.9071C116.633 16.3488 118.203 15.0024 122.286 15.0024L131.343 15.0505Z" fill="white"/>
<path d="M149.664 15.0522C150.711 15.0522 151.339 15.3408 151.967 16.4467L158.616 27.5543C158.773 27.7947 158.72 27.9871 158.354 27.9871H155.789C155.527 27.9871 155.422 27.939 155.318 27.7466L153.904 25.3424H144.429L143.016 27.7466C142.911 27.939 142.806 27.9871 142.545 27.9871H139.927C139.561 27.9871 139.508 27.7947 139.666 27.5543L146.366 16.4948C147.047 15.3888 147.622 15.1003 148.46 15.1003H149.664V15.0522ZM145.738 23.2267H152.648L149.455 17.7931C149.402 17.6969 149.35 17.6488 149.245 17.6488H149.141C149.036 17.6488 148.984 17.6969 148.931 17.7931L145.738 23.2267Z" fill="white"/>
<path d="M162.124 15.0522C162.439 15.0522 162.543 15.1965 162.543 15.4369V22.842C162.543 24.8135 163.171 25.3905 165.213 25.3905H170.814C172.908 25.3905 173.484 24.8135 173.484 22.842V15.4369C173.484 15.1484 173.641 15.0522 173.903 15.0522H176.101C176.416 15.0522 176.52 15.1965 176.52 15.4369V23.0824C176.52 26.6407 174.95 27.9871 170.867 27.9871H165.056C160.973 27.9871 159.402 26.6407 159.402 23.0824V15.4369C159.402 15.1484 159.559 15.0522 159.873 15.0522H162.124Z" fill="white"/>
<path d="M194.527 15.0522C194.841 15.0522 194.998 15.1965 194.998 15.4369V17.2641C194.998 17.5527 194.841 17.6969 194.527 17.6969H188.193V27.6024C188.193 27.8909 188.036 27.9871 187.774 27.9871H185.576C185.262 27.9871 185.157 27.8428 185.157 27.6024V17.6969H178.823C178.509 17.6969 178.352 17.5527 178.352 17.2641V15.4369C178.352 15.1484 178.509 15.0522 178.823 15.0522H194.527Z" fill="white"/>
<path d="M208.086 15.0522C212.169 15.0522 213.74 16.3986 213.74 19.9569V23.1305C213.74 26.6888 212.169 28.0352 208.086 28.0352H201.857C197.774 28.0352 196.203 26.6888 196.203 23.1305V19.9569C196.203 16.3986 197.774 15.0522 201.857 15.0522H208.086ZM199.292 22.9382C199.292 24.8616 199.92 25.4386 201.961 25.4386H207.929C210.023 25.4386 210.599 24.8616 210.599 22.9382V20.1492C210.599 18.2258 209.971 17.6488 207.929 17.6488H201.961C199.868 17.6488 199.292 18.2258 199.292 20.1492V22.9382Z" fill="white"/>
<path d="M83.7052 36.4965C85.6421 36.4965 86.3226 37.1216 86.3226 38.8047V40.2954C86.3226 41.9785 85.5897 42.6036 83.7052 42.6036H80.7737C78.8891 42.6036 78.1562 41.9785 78.1562 40.2954V38.8047C78.1562 37.1216 78.8891 36.4965 80.7737 36.4965H83.7052ZM79.622 40.1992C79.622 41.1129 79.8837 41.3533 80.8784 41.3533H83.6528C84.6475 41.3533 84.9092 41.0648 84.9092 40.1992V38.9009C84.9092 37.9872 84.6475 37.7467 83.6528 37.7467H80.8784C79.8837 37.7467 79.622 38.0353 79.622 38.9009V40.1992Z" fill="#737373"/>
<path d="M92.0285 36.0638C92.1856 36.0638 92.2379 36.1119 92.2379 36.2562V37.795H93.4419C95.1171 37.795 95.6929 38.2759 95.6929 39.5743V40.8245C95.6929 42.0748 95.1694 42.5557 93.4419 42.5557H92.2379V44.2869C92.2379 44.4311 92.1856 44.4792 92.0285 44.4792H91.0863C90.9292 44.4792 90.8769 44.4311 90.8769 44.2869V42.5557H89.6729C87.9977 42.5557 87.4219 42.0748 87.4219 40.8245V39.5743C87.4219 38.324 87.9454 37.795 89.6729 37.795H90.8769V36.2562C90.8769 36.1119 90.9292 36.0638 91.0863 36.0638H92.0285ZM88.7829 40.6322C88.7829 41.3535 88.9923 41.5939 89.8299 41.5939H90.9292V38.8529H89.8299C89.0447 38.8529 88.7829 39.0934 88.7829 39.8147V40.6322ZM92.2379 38.8529V41.5939H93.3372C94.1748 41.5939 94.3842 41.3535 94.3842 40.6322V39.8147C94.3842 39.0934 94.1748 38.8529 93.3372 38.8529H92.2379Z" fill="#737373"/>
<path d="M97.8899 37.8428C98.047 37.8428 98.0993 37.8909 98.0993 38.0352V41.3554C98.0993 41.4035 98.1517 41.4516 98.1517 41.4516H98.2564C98.3087 41.4516 98.3611 41.4516 98.3611 41.4035L101.188 38.3721C101.502 37.9871 101.711 37.8428 102.34 37.8428H102.863C103.439 37.8428 103.701 38.0352 103.701 38.757V42.414C103.701 42.5583 103.648 42.6064 103.491 42.6064H102.549C102.392 42.6064 102.34 42.5583 102.34 42.414V39.0938C102.34 39.0457 102.34 38.9976 102.287 38.9976H102.183C102.13 38.9976 102.078 38.9976 102.078 39.0457L99.251 42.0772C98.8846 42.4621 98.7275 42.6064 98.0993 42.6064H97.5758C97 42.6064 96.7383 42.414 96.7383 41.6922V38.0352C96.7383 37.8909 96.7906 37.8428 96.9477 37.8428H97.8899Z" fill="#737373"/>
<path d="M106.056 37.8428C106.213 37.8428 106.266 37.8909 106.266 38.0351V41.4013C106.266 41.5455 106.318 41.5936 106.475 41.5936H110.558V38.0832C110.558 37.9389 110.611 37.8909 110.768 37.8909H111.71C111.867 37.8909 111.919 37.9389 111.919 38.0832V41.5936H113.176C113.333 41.5936 113.385 41.6417 113.385 41.786V44.0461C113.385 44.1904 113.333 44.2385 113.176 44.2385H112.443C112.286 44.2385 112.233 44.1904 112.233 44.0461V42.6035H105.847C105.219 42.6035 104.957 42.363 104.957 41.8822V38.0832C104.957 37.9389 105.009 37.8909 105.166 37.8909L106.056 37.8428Z" fill="#737373"/>
<path d="M115.322 37.8428C115.479 37.8428 115.531 37.8909 115.531 38.0352V41.3554C115.531 41.4035 115.584 41.4516 115.584 41.4516H115.688C115.741 41.4516 115.793 41.4516 115.793 41.4035L118.62 38.3721C118.934 37.9871 119.143 37.8428 119.772 37.8428H120.295C120.871 37.8428 121.133 38.0352 121.133 38.757V42.414C121.133 42.5583 121.08 42.6064 120.923 42.6064H119.981C119.824 42.6064 119.772 42.5583 119.772 42.414V39.0938C119.772 39.0457 119.772 38.9976 119.719 38.9976H119.667C119.615 38.9976 119.562 38.9976 119.562 39.0457L116.735 42.0772C116.369 42.4621 116.212 42.6064 115.584 42.6064H115.06C114.484 42.6064 114.223 42.414 114.223 41.6922V38.0352C114.223 37.8909 114.275 37.8428 114.432 37.8428H115.322Z" fill="#737373"/>
<path d="M126.526 37.8428C128.201 37.8428 128.777 38.324 128.777 39.6231V41.9328C128.777 42.5102 128.62 42.6064 128.097 42.6064H123.595C122.495 42.6064 122.129 42.2215 122.129 41.3554V40.9223C122.129 40.2006 122.443 39.7675 123.595 39.7675H127.416V39.6231C127.416 39.0457 127.207 38.8533 126.369 38.8533H122.443C122.338 38.8533 122.286 38.8051 122.286 38.7089V37.9871C122.286 37.8909 122.338 37.8428 122.443 37.8428H126.526ZM127.416 41.3073V40.5374H123.961C123.595 40.5374 123.438 40.6817 123.438 40.9704V41.1629C123.438 41.4516 123.595 41.596 123.961 41.596H127.154C127.364 41.6441 127.416 41.5479 127.416 41.3073Z" fill="#737373"/>
<path d="M135.531 37.8428C136.107 37.8428 136.316 38.0834 136.316 38.5165V42.3659C136.316 42.5103 136.264 42.5584 136.107 42.5584H135.165C135.008 42.5584 134.955 42.5103 134.955 42.3659V39.0457C134.955 38.9495 134.903 38.9014 134.798 38.9014H132.757C132.547 38.9014 132.547 38.9976 132.495 39.0939C132.39 39.5751 132.233 40.9705 131.867 41.7404C131.605 42.2697 131.291 42.5584 130.506 42.5584H129.616C129.511 42.5584 129.406 42.5103 129.406 42.3659V41.7404C129.406 41.596 129.459 41.5479 129.616 41.5479H130.296C130.558 41.5479 130.767 41.4998 130.977 41.0186C131.186 40.5374 131.343 39.6713 131.5 38.3721C131.553 38.0353 131.71 37.7947 132.285 37.7947H135.531V37.8428Z" fill="#737373"/>
<path d="M138.62 37.8428C138.777 37.8428 138.83 37.8909 138.83 38.0352V39.2863H142.389C143.698 39.2863 144.222 39.7675 144.222 40.6336V41.211C144.222 42.1253 143.698 42.5583 142.389 42.5583H137.73C137.573 42.5583 137.469 42.4621 137.469 42.3177V38.0352C137.469 37.8909 137.521 37.8428 137.678 37.8428H138.62ZM138.83 40.2006V41.4997C138.83 41.5479 138.882 41.596 138.934 41.596H142.128C142.704 41.596 142.913 41.4035 142.913 41.0667V40.7298C142.913 40.3449 142.704 40.2006 142.128 40.2006H138.83Z" fill="#737373"/>
<path d="M146.417 37.8428C146.574 37.8428 146.627 37.8909 146.627 38.0352V39.6713H150.919V38.0352C150.919 37.8909 150.972 37.8428 151.129 37.8428H152.071C152.228 37.8428 152.28 37.8909 152.28 38.0352V42.414C152.28 42.5583 152.228 42.6064 152.071 42.6064H151.129C150.972 42.6064 150.919 42.5583 150.919 42.414V40.6817H146.627V42.414C146.627 42.5583 146.574 42.6064 146.417 42.6064H145.475C145.318 42.6064 145.266 42.5583 145.266 42.414V38.0352C145.266 37.8909 145.318 37.8428 145.475 37.8428H146.417Z" fill="#737373"/>
<path d="M154.585 37.8428C154.742 37.8428 154.795 37.8909 154.795 38.0352V39.2863H158.354C159.663 39.2863 160.187 39.7675 160.187 40.6336V41.211C160.187 42.1253 159.663 42.5583 158.354 42.5583H153.695C153.538 42.5583 153.434 42.4621 153.434 42.3177V38.0352C153.434 37.8909 153.486 37.8428 153.643 37.8428H154.585ZM154.795 40.2006V41.4997C154.795 41.5479 154.847 41.596 154.899 41.596H158.093C158.668 41.596 158.878 41.4035 158.878 41.0667V40.7298C158.878 40.3449 158.668 40.2006 158.093 40.2006H154.795ZM162.071 37.8428C162.228 37.8428 162.28 37.8909 162.28 38.0352V42.414C162.28 42.5583 162.228 42.6064 162.071 42.6064H161.129C160.972 42.6064 160.919 42.5583 160.919 42.414V38.0352C160.919 37.8909 160.972 37.8428 161.129 37.8428H162.071Z" fill="#737373"/>
<path d="M164.585 37.8429C164.742 37.8429 164.795 37.891 164.795 38.0353V41.3533C164.795 41.4014 164.847 41.4495 164.847 41.4495H164.952C165.004 41.4495 165.056 41.4495 165.056 41.4014L167.883 38.3719C168.197 37.9872 168.407 37.8429 169.035 37.8429H169.558C170.134 37.8429 170.396 38.0353 170.396 38.7566V42.4113C170.396 42.5555 170.344 42.6036 170.187 42.6036H169.244C169.087 42.6036 169.035 42.5555 169.035 42.4113V39.0932C169.035 39.0451 169.035 38.997 168.982 38.997H168.878C168.825 38.997 168.773 38.997 168.773 39.0451L165.946 42.0747C165.58 42.4594 165.423 42.6036 164.795 42.6036H164.271C163.695 42.6036 163.434 42.4113 163.434 41.69V38.0353C163.434 37.891 163.486 37.8429 163.643 37.8429H164.585ZM164.69 35.8713C164.69 35.7751 164.742 35.679 164.847 35.679C164.899 35.679 165.004 35.727 165.109 35.7751C165.318 35.9194 165.999 36.4484 166.941 36.4484C167.883 36.4484 168.564 35.9194 168.773 35.7751C168.878 35.727 168.93 35.679 168.982 35.679C169.087 35.679 169.14 35.7751 169.14 35.8713V36.3041C169.14 36.4484 169.14 36.5445 168.982 36.6407C168.668 36.8812 167.778 37.2659 166.889 37.2659C165.999 37.2659 165.161 36.9292 164.795 36.6407C164.638 36.4965 164.585 36.4003 164.585 36.3041V35.8713H164.69Z" fill="#737373"/>
<path d="M180.708 37.8428C181.283 37.8428 181.493 38.0832 181.493 38.516V41.5456H182.749C182.906 41.5456 182.959 41.5936 182.959 41.7379V43.998C182.959 44.1423 182.906 44.1904 182.749 44.1904H181.964C181.807 44.1904 181.755 44.1423 181.755 43.998V42.5554H175.577V43.998C175.577 44.1423 175.525 44.1904 175.368 44.1904H174.635C174.478 44.1904 174.426 44.1423 174.426 43.998V41.7379C174.426 41.5936 174.478 41.5456 174.635 41.5456H175.42C175.682 41.5456 175.892 41.4975 176.101 41.0166C176.31 40.5357 176.467 39.6701 176.624 38.3717C176.677 38.0351 176.834 37.7947 177.41 37.7947H180.708V37.8428ZM180.132 41.5456V39.045C180.132 38.9488 180.079 38.9007 179.975 38.9007H177.933C177.724 38.9007 177.724 38.9969 177.671 39.0931C177.619 39.5739 177.41 40.7281 177.148 41.5456H180.132Z" fill="#737373"/>
<path d="M184.894 37.8428C185.051 37.8428 185.103 37.8909 185.103 38.0352V41.3554C185.103 41.4035 185.156 41.4516 185.156 41.4516H185.26C185.313 41.4516 185.365 41.4516 185.365 41.4035L188.192 38.3721C188.506 37.9871 188.715 37.8428 189.343 37.8428H189.867C190.443 37.8428 190.705 38.0352 190.705 38.757V42.414C190.705 42.5583 190.652 42.6064 190.495 42.6064H189.553C189.396 42.6064 189.343 42.5583 189.343 42.414V39.0938C189.343 39.0457 189.343 38.9976 189.291 38.9976H189.186C189.134 38.9976 189.082 38.9976 189.082 39.0457L186.255 42.0772C185.888 42.4621 185.731 42.6064 185.103 42.6064H184.58C184.004 42.6064 183.742 42.414 183.742 41.6922V38.0352C183.742 37.8909 183.795 37.8428 183.952 37.8428H184.894Z" fill="#737373"/>
<path d="M197.617 37.8428C198.193 37.8428 198.402 38.0834 198.402 38.5165V42.3659C198.402 42.5103 198.35 42.5584 198.193 42.5584H197.251C197.093 42.5584 197.041 42.5103 197.041 42.3659V39.0457C197.041 38.9495 196.989 38.9014 196.884 38.9014H194.843C194.633 38.9014 194.633 38.9976 194.581 39.0939C194.476 39.5751 194.319 40.9705 193.953 41.7404C193.691 42.2697 193.377 42.5584 192.592 42.5584H191.702C191.597 42.5584 191.492 42.5103 191.492 42.3659V41.7404C191.492 41.596 191.545 41.5479 191.702 41.5479H192.382C192.644 41.5479 192.853 41.4998 193.063 41.0186C193.272 40.5374 193.429 39.6713 193.586 38.3721C193.638 38.0353 193.796 37.7947 194.371 37.7947H197.617V37.8428Z" fill="#737373"/>
<path d="M204.42 37.8428C205.729 37.8428 206.043 38.2277 206.043 39.2863V40.1044C206.043 40.4893 205.886 40.5855 205.519 40.5855H200.756V40.778C200.756 41.3073 200.965 41.5479 201.803 41.5479H205.729C205.833 41.5479 205.886 41.596 205.886 41.6922V42.414C205.886 42.5103 205.833 42.5584 205.729 42.5584H201.646C199.97 42.5584 199.395 42.0772 199.395 40.8261V39.5751C199.395 38.324 199.918 37.7947 201.646 37.7947L204.42 37.8428ZM200.756 39.7675H204.577C204.682 39.7675 204.734 39.7194 204.734 39.6232V39.2382C204.734 38.9014 204.577 38.757 204.158 38.757H201.803C200.965 38.757 200.756 38.9976 200.756 39.5269V39.7675Z" fill="#737373"/>
<path d="M211.905 37.8428C213.58 37.8428 214.156 38.3236 214.156 39.622V40.8723C214.156 42.1226 213.633 42.6035 211.905 42.6035H208.345V44.3347C208.345 44.4789 208.293 44.527 208.136 44.527H207.194C207.037 44.527 206.984 44.4789 206.984 44.3347V39.5739C206.984 38.3236 207.508 37.7947 209.235 37.7947L211.905 37.8428ZM208.345 41.5456H211.748C212.586 41.5456 212.795 41.3051 212.795 40.5838V39.8144C212.795 39.0931 212.586 38.8526 211.748 38.8526H209.392C208.607 38.8526 208.345 39.0931 208.345 39.8144V41.5456Z" fill="#737373"/>
</g>
<defs>
<clipPath id="clip0_3201_43729">
<rect width="217.56" height="59" fill="white"/>
</clipPath>
</defs>
</svg>
